<?xml version="1.0" encoding="UTF-8" standalone="no"?>
<!-- Generator: Adobe Illustrator 19.0.0, SVG Export Plug-In . SVG Version: 6.00 Build 0)  -->

<svg
   xmlns:dc="http://purl.org/dc/elements/1.1/"
   xmlns:cc="http://creativecommons.org/ns#"
   xmlns:rdf="http://www.w3.org/1999/02/22-rdf-syntax-ns#"
   xmlns:svg="http://www.w3.org/2000/svg"
   xmlns="http://www.w3.org/2000/svg"
   xmlns:sodipodi="http://sodipodi.sourceforge.net/DTD/sodipodi-0.dtd"
   xmlns:inkscape="http://www.inkscape.org/namespaces/inkscape"
   version="1.1"
   id="Capa_1"
   x="0px"
   y="0px"
   viewBox="0 0 480 480"
   style="enable-background:new 0 0 480 480;"
   xml:space="preserve"
   sodipodi:docname="Basic.svg"
   inkscape:version="0.92.4 (5da689c313, 2019-01-14)"><metadata
   id="metadata3929"><rdf:RDF><cc:Work
       rdf:about=""><dc:format>image/svg+xml</dc:format><dc:type
         rdf:resource="http://purl.org/dc/dcmitype/StillImage" /><dc:title></dc:title></cc:Work></rdf:RDF></metadata><defs
   id="defs3927" /><sodipodi:namedview
   pagecolor="#ffffff"
   bordercolor="#666666"
   borderopacity="1"
   objecttolerance="10"
   gridtolerance="10"
   guidetolerance="10"
   inkscape:pageopacity="0"
   inkscape:pageshadow="2"
   inkscape:window-width="1920"
   inkscape:window-height="1017"
   id="namedview3925"
   showgrid="false"
   inkscape:zoom="1.7666667"
   inkscape:cx="240"
   inkscape:cy="246.92271"
   inkscape:window-x="-8"
   inkscape:window-y="-8"
   inkscape:window-maximized="1"
   inkscape:current-layer="layer2" />












<g
   id="g3894">
</g>
<g
   id="g3896">
</g>
<g
   id="g3898">
</g>
<g
   id="g3900">
</g>
<g
   id="g3902">
</g>
<g
   id="g3904">
</g>
<g
   id="g3906">
</g>
<g
   id="g3908">
</g>
<g
   id="g3910">
</g>
<g
   id="g3912">
</g>
<g
   id="g3914">
</g>
<g
   id="g3916">
</g>
<g
   id="g3918">
</g>
<g
   id="g3920">
</g>
<g
   id="g3922">
</g>
<g
   inkscape:groupmode="layer"
   id="layer2"
   inkscape:label="Layer 2"><ellipse
     style="opacity:1;fill:#f9be3b;fill-opacity:1;stroke-width:3.64509559"
     id="path4872"
     cx="241.41508"
     cy="239.99998"
     rx="236.88678"
     ry="236.60378" /></g><g
   inkscape:groupmode="layer"
   id="layer1"
   inkscape:label="Layer 1"><g
     style="enable-background:new 0 0 480 480"
     id="g3826"
     transform="matrix(0.69231035,0,0,0.64150943,86.015403,88.867923)">
	<g
   id="g3824">
		<path
   d="m 395.522,232 v 176 h -48 c -4.418,0 -8,3.582 -8,8 v 48 h -296 V 16 h 352 v 104 h 16 V 8 c 0,-4.418 -3.582,-8 -8,-8 h -368 c -4.418,0 -8,3.582 -8,8 v 464 c 0,4.418 3.582,8 8,8 h 312 c 2.121,-0.005 4.154,-0.847 5.656,-2.344 l 56,-56 c 0.669,-0.68 1.211,-1.474 1.6,-2.344 0.112,-0.248 0.176,-0.488 0.264,-0.744 0.23,-0.672 0.37,-1.371 0.416,-2.08 0,-0.168 0.096,-0.32 0.096,-0.488 V 232 Z m -40,220.688 V 424 h 28.688 z"
   id="path3822"
   inkscape:connector-curvature="0" />
	</g>
</g><g
     style="enable-background:new 0 0 480 480"
     id="g3832"
     transform="matrix(0.69231035,0,0,0.64150943,86.015403,88.867923)">
	<g
   id="g3830">
		<path
   d="m 445.178,134.344 c -9.877,-9.442 -25.435,-9.442 -35.312,0 l -140,140 c -1.5,1.5 -2.344,3.534 -2.344,5.656 v 24 c 0,4.418 3.582,8 8,8 h 24 c 2.122,0 4.156,-0.844 5.656,-2.344 l 140,-140 c 9.734,-9.758 9.734,-25.554 0,-35.312 z M 296.21,296 h -12.688 v -12.688 l 100,-100 L 396.21,196 Z M 407.522,184.688 394.834,172 403.522,163.312 416.21,176 Z m 26.344,-26.344 -6.344,6.344 -12.688,-12.688 6.344,-6.344 c 3.55,-3.391 9.138,-3.391 12.688,0 3.488,3.51 3.488,9.178 0,12.688 z"
   id="path3828"
   inkscape:connector-curvature="0" />
	</g>
</g><g
     style="enable-background:new 0 0 480 480"
     id="g3838"
     transform="matrix(0.69231035,0,0,0.64150943,86.015403,88.867923)">
	<g
   id="g3836">
		<path
   d="m 99.522,104 c -17.673,0 -32,14.327 -32,32 0,17.673 14.327,32 32,32 17.673,0 32,-14.327 32,-32 0,-17.673 -14.327,-32 -32,-32 z m 0,48 c -8.837,0 -16,-7.163 -16,-16 0,-8.837 7.163,-16 16,-16 8.837,0 16,7.163 16,16 0,8.837 -7.164,16 -16,16 z"
   id="path3834"
   inkscape:connector-curvature="0" />
	</g>
</g><g
     style="enable-background:new 0 0 480 480"
     id="g3844"
     transform="matrix(0.69231035,0,0,0.64150943,86.015403,88.867923)">
	<g
   id="g3842">
		<polygon
   points="219.522,44.688 201.178,26.344 189.866,37.656 208.21,56 189.866,74.344 201.178,85.656 219.522,67.312 237.866,85.656 249.178,74.344 230.834,56 249.178,37.656 237.866,26.344 "
   id="polygon3840" />
	</g>
</g><g
     style="enable-background:new 0 0 480 480"
     id="g3850"
     transform="matrix(0.69231035,0,0,0.64150943,86.015403,88.867923)">
	<g
   id="g3848">
		<path
   d="m 323.522,96 c -17.673,0 -32,14.327 -32,32 0,17.673 14.327,32 32,32 17.673,0 32,-14.327 32,-32 0,-17.673 -14.327,-32 -32,-32 z m 0,48 c -8.837,0 -16,-7.163 -16,-16 0,-8.837 7.163,-16 16,-16 8.837,0 16,7.163 16,16 0,8.837 -7.164,16 -16,16 z"
   id="path3846"
   inkscape:connector-curvature="0" />
	</g>
</g><g
     style="enable-background:new 0 0 480 480"
     id="g3856"
     transform="matrix(0.69231035,0,0,0.64150943,86.015403,88.867923)">
	<g
   id="g3854">
		<path
   d="m 123.522,328 c -17.673,0 -32,14.327 -32,32 0,17.673 14.327,32 32,32 17.673,0 32,-14.327 32,-32 0,-17.673 -14.327,-32 -32,-32 z m 0,48 c -8.837,0 -16,-7.163 -16,-16 0,-8.837 7.163,-16 16,-16 8.837,0 16,7.163 16,16 0,8.837 -7.164,16 -16,16 z"
   id="path3852"
   inkscape:connector-curvature="0" />
	</g>
</g><g
     style="enable-background:new 0 0 480 480"
     id="g3862"
     transform="matrix(0.69231035,0,0,0.64150943,86.015403,88.867923)">
	<g
   id="g3860">
		<polygon
   points="131.522,228.688 113.178,210.344 101.866,221.656 120.21,240 101.866,258.344 113.178,269.656 131.522,251.312 149.866,269.656 161.178,258.344 142.834,240 161.178,221.656 149.866,210.344 "
   id="polygon3858" />
	</g>
</g><g
     style="enable-background:new 0 0 480 480"
     id="g3868"
     transform="matrix(0.69231035,0,0,0.64150943,86.015403,88.867923)">
	<g
   id="g3866">
		<polygon
   points="331.522,340.688 313.178,322.344 301.866,333.656 320.21,352 301.866,370.344 313.178,381.656 331.522,363.312 349.866,381.656 361.178,370.344 342.834,352 361.178,333.656 349.866,322.344 "
   id="polygon3864" />
	</g>
</g><g
     style="enable-background:new 0 0 480 480"
     id="g3874"
     transform="matrix(0.69231035,0,0,0.64150943,86.015403,88.867923)">
	<g
   id="g3872">
		<path
   d="m 173.49,160 h 13.6 v -16 h -32 c -4.418,0 -8,3.582 -8,8 v 32 h 16 v -11.2 c 34.703,44.743 32.205,107.959 -5.92,149.824 l 11.848,10.768 C 213.358,284.724 215.262,210.889 173.49,160 Z"
   id="path3870"
   inkscape:connector-curvature="0" />
	</g>
</g><g
     style="enable-background:new 0 0 480 480"
     id="g3880"
     transform="matrix(0.69231035,0,0,0.64150943,86.015403,88.867923)">
	<g
   id="g3878">
		<path
   d="m 219.522,368 c -17.673,0 -32,14.327 -32,32 0,17.673 14.327,32 32,32 17.673,0 32,-14.327 32,-32 0,-17.673 -14.327,-32 -32,-32 z m 0,48 c -8.837,0 -16,-7.163 -16,-16 0,-8.837 7.163,-16 16,-16 8.837,0 16,7.163 16,16 0,8.837 -7.164,16 -16,16 z"
   id="path3876"
   inkscape:connector-curvature="0" />
	</g>
</g><g
     style="enable-background:new 0 0 480 480"
     id="g3886"
     transform="matrix(0.69231035,0,0,0.64150943,86.015403,88.867923)">
	<g
   id="g3884">
		<path
   d="m 273.178,114.344 -24,-24 -11.312,11.312 L 248.21,112 H 147.522 v 16 H 248.21 l -10.344,10.344 11.312,11.312 24,-24 c 3.123,-3.124 3.123,-8.188 0,-11.312 z"
   id="path3882"
   inkscape:connector-curvature="0" />
	</g>
</g><g
     style="enable-background:new 0 0 480 480"
     id="g3892"
     transform="matrix(0.69231035,0,0,0.64150943,86.015403,88.867923)">
	<g
   id="g3890">
		<path
   d="m 291.522,160 h -32 v 16 h 12.96 c -39.294,41.833 -61.104,97.11 -60.96,154.504 V 352 h 16 v -21.496 c -0.132,-53.015 19.885,-104.1 56,-142.912 V 200 h 16 v -32 c 0,-4.418 -3.582,-8 -8,-8 z"
   id="path3888"
   inkscape:connector-curvature="0" />
	</g>
</g></g></svg>