<?xml version="1.0" encoding="UTF-8" standalone="no"?>
<!-- Generator: Adobe Illustrator 19.0.0, SVG Export Plug-In . SVG Version: 6.00 Build 0)  -->

<svg
   xmlns:dc="http://purl.org/dc/elements/1.1/"
   xmlns:cc="http://creativecommons.org/ns#"
   xmlns:rdf="http://www.w3.org/1999/02/22-rdf-syntax-ns#"
   xmlns:svg="http://www.w3.org/2000/svg"
   xmlns="http://www.w3.org/2000/svg"
   xmlns:sodipodi="http://sodipodi.sourceforge.net/DTD/sodipodi-0.dtd"
   xmlns:inkscape="http://www.inkscape.org/namespaces/inkscape"
   version="1.1"
   id="Capa_1"
   x="0px"
   y="0px"
   viewBox="0 0 480 480"
   style="enable-background:new 0 0 480 480;"
   xml:space="preserve"
   sodipodi:docname="blacklist.svg"
   inkscape:version="0.92.4 (5da689c313, 2019-01-14)"><metadata
   id="metadata3929"><rdf:RDF><cc:Work
       rdf:about=""><dc:format>image/svg+xml</dc:format><dc:type
         rdf:resource="http://purl.org/dc/dcmitype/StillImage" /><dc:title></dc:title></cc:Work></rdf:RDF></metadata><defs
   id="defs3927" /><sodipodi:namedview
   pagecolor="#ffffff"
   bordercolor="#666666"
   borderopacity="1"
   objecttolerance="10"
   gridtolerance="10"
   guidetolerance="10"
   inkscape:pageopacity="0"
   inkscape:pageshadow="2"
   inkscape:window-width="1920"
   inkscape:window-height="1017"
   id="namedview3925"
   showgrid="false"
   inkscape:zoom="1.7666667"
   inkscape:cx="107.98868"
   inkscape:cy="259.9157"
   inkscape:window-x="-8"
   inkscape:window-y="-8"
   inkscape:window-maximized="1"
   inkscape:current-layer="layer2" />












<g
   id="g3894">
</g>
<g
   id="g3896">
</g>
<g
   id="g3898">
</g>
<g
   id="g3900">
</g>
<g
   id="g3902">
</g>
<g
   id="g3904">
</g>
<g
   id="g3906">
</g>
<g
   id="g3908">
</g>
<g
   id="g3910">
</g>
<g
   id="g3912">
</g>
<g
   id="g3914">
</g>
<g
   id="g3916">
</g>
<g
   id="g3918">
</g>
<g
   id="g3920">
</g>
<g
   id="g3922">
</g>
<g
   inkscape:groupmode="layer"
   id="layer2"
   inkscape:label="Layer 2"><ellipse
   style="opacity:1;fill:#4aeb61;fill-opacity:1;stroke-width:3.64509559"
   id="path4872"
   cx="241.41508"
   cy="239.99998"
   rx="236.88678"
   ry="236.60378" /><text
   xml:space="preserve"
   style="font-style:normal;font-variant:normal;font-weight:normal;font-stretch:normal;font-size:26.66666603px;line-height:1.25;font-family:sans-serif;-inkscape-font-specification:'sans-serif, Normal';font-variant-ligatures:normal;font-variant-caps:normal;font-variant-numeric:normal;font-feature-settings:normal;text-align:start;letter-spacing:0px;word-spacing:0px;writing-mode:lr-tb;text-anchor:start;fill:#000000;fill-opacity:1;stroke:none"
   x="186.22643"
   y="424.52829"
   id="text5341"><tspan
     sodipodi:role="line"
     id="tspan5343"
     x="186.22643"
     y="424.52829">Blacklist</tspan></text>


<path
   inkscape:connector-curvature="0"
   d="m 132.93599,149.15529 a 5.5734502,6.8392598 0 0 0 -5.57345,6.83926 v 145.90421 a 5.5734502,6.8392598 0 0 0 11.1469,0 V 155.99455 a 5.5734502,6.8392598 0 0 0 -5.57345,-6.83926 z"
   id="path5811"
   style="stroke-width:4.1159997" /><path
   inkscape:connector-curvature="0"
   d="m 162.66105,149.15529 a 5.5734502,6.8392598 0 0 0 -5.57344,6.83926 v 145.90421 a 5.5734502,6.8392598 0 0 0 11.14689,0 V 155.99455 a 5.5734502,6.8392598 0 0 0 -5.57345,-6.83926 z"
   id="path5813"
   style="stroke-width:4.1159997" /><path
   inkscape:connector-curvature="0"
   d="m 181.23922,149.15529 a 5.5734502,6.8392598 0 0 0 -5.57345,6.83926 v 145.90421 a 5.5734502,6.8392598 0 0 0 11.1469,0 V 155.99455 a 5.5734502,6.8392598 0 0 0 -5.57345,-6.83926 z"
   id="path5815"
   style="stroke-width:4.1159997" /><path
   inkscape:connector-curvature="0"
   d="m 288.99259,149.15529 a 5.5734502,6.8392598 0 0 0 -5.57345,6.83926 v 145.90421 a 5.5734502,6.8392598 0 0 0 11.1469,0 V 155.99455 a 5.5734502,6.8392598 0 0 0 -5.57345,-6.83926 z"
   id="path5817"
   style="stroke-width:4.1159997" /><path
   inkscape:connector-curvature="0"
   d="m 307.57075,149.15529 a 5.5734502,6.8392598 0 0 0 -5.57344,6.83926 v 145.90421 a 5.5734502,6.8392598 0 0 0 11.14689,0 V 155.99455 a 5.5734502,6.8392598 0 0 0 -5.57345,-6.83926 z"
   id="path5819"
   style="stroke-width:4.1159997" /><path
   inkscape:connector-curvature="0"
   d="m 222.11119,149.15529 a 5.5734502,6.8392598 0 0 0 -5.57345,6.83926 v 145.90421 a 5.5734502,6.8392598 0 0 0 11.1469,0 V 155.99455 a 5.5734502,6.8392598 0 0 0 -5.57345,-6.83926 z"
   id="path5821"
   style="stroke-width:4.1159997" /><path
   inkscape:connector-curvature="0"
   d="m 259.26752,149.15529 a 5.5734502,6.8392598 0 0 0 -5.57344,6.83926 v 145.90421 a 5.5734502,6.8392598 0 0 0 11.14689,0 V 155.99455 a 5.5734502,6.8392598 0 0 0 -5.57345,-6.83926 z"
   id="path5823"
   style="stroke-width:4.1159997" /><path
   inkscape:connector-curvature="0"
   d="M 357.7318,301.89876 V 155.99455 a 5.5734502,6.8392598 0 0 0 -11.14689,0 v 145.90421 a 5.5734502,6.8392598 0 0 0 11.14689,0 z"
   id="path5825"
   style="stroke-width:4.1159997" /><path
   inkscape:connector-curvature="0"
   d="m 92.064017,171.95283 a 5.5734502,6.8392598 0 0 0 5.573451,-6.83926 v -38.75581 h 31.582882 a 5.5734508,6.8392605 0 0 0 0,-13.67852 H 92.064017 a 5.5734502,6.8392598 0 0 0 -5.57345,6.83926 v 45.59507 a 5.5734502,6.8392598 0 0 0 5.57345,6.83926 z"
   id="path5827"
   style="stroke-width:4.1159997" /><path
   inkscape:connector-curvature="0"
   d="M 393.03033,112.67924 H 355.874 a 5.5734508,6.8392605 0 0 0 0,13.67852 h 31.58288 v 38.75581 a 5.5734502,6.8392598 0 0 0 11.1469,0 V 119.5185 a 5.5734502,6.8392598 0 0 0 -5.57345,-6.83926 z"
   id="path5829"
   style="stroke-width:4.1159997" /><path
   inkscape:connector-curvature="0"
   d="M 129.22035,336.09506 H 97.637468 v -34.1963 a 5.5734505,6.8392601 0 0 0 -11.146901,0 v 41.03556 a 5.5734502,6.8392598 0 0 0 5.57345,6.83926 h 37.156333 a 5.5734508,6.8392605 0 0 0 0,-13.67852 z"
   id="path5831"
   style="stroke-width:4.1159997" /><path
   inkscape:connector-curvature="0"
   d="m 393.03033,295.05951 a 5.5734502,6.8392598 0 0 0 -5.57345,6.83925 v 34.1963 H 355.874 a 5.5734508,6.8392605 0 0 0 0,13.67852 h 37.15633 a 5.5734502,6.8392598 0 0 0 5.57345,-6.83926 v -41.03556 a 5.5734502,6.8392598 0 0 0 -5.57345,-6.83925 z"
   id="path5833"
   style="stroke-width:4.1159997" /><path
   style="fill:none;stroke:#000000;stroke-width:25.82285118;stroke-linecap:butt;stroke-linejoin:miter;stroke-miterlimit:4;stroke-dasharray:none;stroke-opacity:1"
   d="M 70.197791,80.363109 428.48146,380.95764 v 0"
   id="path2068"
   inkscape:connector-curvature="0" /></g><g
   inkscape:groupmode="layer"
   id="layer1"
   inkscape:label="Layer 1" /></svg>