<?xml version="1.0" encoding="UTF-8" standalone="no"?>
<!-- Generator: Adobe Illustrator 19.0.0, SVG Export Plug-In . SVG Version: 6.00 Build 0)  -->

<svg
   xmlns:dc="http://purl.org/dc/elements/1.1/"
   xmlns:cc="http://creativecommons.org/ns#"
   xmlns:rdf="http://www.w3.org/1999/02/22-rdf-syntax-ns#"
   xmlns:svg="http://www.w3.org/2000/svg"
   xmlns="http://www.w3.org/2000/svg"
   xmlns:sodipodi="http://sodipodi.sourceforge.net/DTD/sodipodi-0.dtd"
   xmlns:inkscape="http://www.inkscape.org/namespaces/inkscape"
   version="1.1"
   id="Capa_1"
   x="0px"
   y="0px"
   viewBox="0 0 480 480"
   style="enable-background:new 0 0 480 480;"
   xml:space="preserve"
   sodipodi:docname="campaign.svg"
   inkscape:version="0.92.4 (5da689c313, 2019-01-14)"><metadata
   id="metadata3929"><rdf:RDF><cc:Work
       rdf:about=""><dc:format>image/svg+xml</dc:format><dc:type
         rdf:resource="http://purl.org/dc/dcmitype/StillImage" /><dc:title /></cc:Work></rdf:RDF></metadata><defs
   id="defs3927" /><sodipodi:namedview
   pagecolor="#ffffff"
   bordercolor="#666666"
   borderopacity="1"
   objecttolerance="10"
   gridtolerance="10"
   guidetolerance="10"
   inkscape:pageopacity="0"
   inkscape:pageshadow="2"
   inkscape:window-width="1920"
   inkscape:window-height="1017"
   id="namedview3925"
   showgrid="false"
   inkscape:zoom="1.7666667"
   inkscape:cx="145.4717"
   inkscape:cy="-16.161289"
   inkscape:window-x="-8"
   inkscape:window-y="-8"
   inkscape:window-maximized="1"
   inkscape:current-layer="layer1" />












<g
   id="g3894">
</g>
<g
   id="g3896">
</g>
<g
   id="g3898">
</g>
<g
   id="g3900">
</g>
<g
   id="g3902">
</g>
<g
   id="g3904">
</g>
<g
   id="g3906">
</g>
<g
   id="g3908">
</g>
<g
   id="g3910">
</g>
<g
   id="g3912">
</g>
<g
   id="g3914">
</g>
<g
   id="g3916">
</g>
<g
   id="g3918">
</g>
<g
   id="g3920">
</g>
<g
   id="g3922">
</g>
<g
   inkscape:groupmode="layer"
   id="layer2"
   inkscape:label="Layer 2"><ellipse
     style="opacity:1;fill:#f9be3b;fill-opacity:1;stroke-width:3.64509559"
     id="path4872"
     cx="241.41508"
     cy="239.99998"
     rx="236.88678"
     ry="236.60378" /></g><g
   inkscape:groupmode="layer"
   id="layer1"
   inkscape:label="Layer 1"><path
     style="stroke-width:0.66825378"
     inkscape:connector-curvature="0"
     d="m 251.68759,257.34277 c -9.25202,-7.36451 -20.54854,-11.91015 -32.46292,-13.06391 v 42.14677 c 0.59132,0.19786 1.17207,0.42913 1.73689,0.69123 z m 0,0"
     id="path4918" /><path
     style="stroke-width:0.66825378"
     inkscape:connector-curvature="0"
     d="m 207.02918,286.42563 v -42.14677 c -11.91704,1.15376 -23.21091,5.6994 -32.46558,13.06391 l 30.72603,29.76895 c 0.56747,-0.25952 1.14557,-0.48823 1.73955,-0.68609 z m 0,0"
     id="path4920" /><path
     style="stroke-width:0.66825378"
     inkscape:connector-curvature="0"
     d="m 196.66343,295.47323 -30.72867,-29.77665 c -7.59732,8.96794 -12.28564,19.91449 -13.47628,31.45976 h 43.49693 c 0.20153,-0.57303 0.43754,-1.13577 0.70802,-1.68311 z m 0,0"
     id="path4922" /><path
     style="stroke-width:0.66825378"
     inkscape:connector-curvature="0"
     d="m 160.077,184.44543 20.44512,29.50942 c 0.87244,-0.30321 1.76873,-0.54475 2.65177,-0.81712 0.60991,-0.19529 1.21981,-0.38802 1.82972,-0.59102 2.24339,-0.65525 4.52922,-1.21543 6.84155,-1.71394 0.34208,-0.0694 0.6762,-0.18244 1.01828,-0.25181 l -22.15285,-31.97369 c -3.55601,1.92721 -7.10938,3.87498 -10.63359,5.83816 z m 0,0"
     id="path4924" /><path
     style="stroke-width:0.66825378"
     inkscape:connector-curvature="0"
     d="m 341.17938,85.47168 c -39.17719,24.95864 -79.83142,47.66631 -121.75319,68.00479 -12.84781,6.50111 -25.44104,12.85319 -37.98921,19.44169 l 24.87093,35.8949 c 2.25664,-0.14647 4.5186,-0.29036 6.81768,-0.29036 3.23781,0 6.45175,0.17216 9.64182,0.47281 0.94934,0.095 1.87745,0.27237 2.82149,0.39058 2.21423,0.27238 4.42314,0.55503 6.60024,0.97645 1.10844,0.2107 2.18772,0.51392 3.28024,0.7606 1.9676,0.44968 3.93786,0.89937 5.87631,1.46468 1.13495,0.33662 2.2328,0.74005 3.35448,1.11264 1.42666,0.47796 2.87187,0.87881 4.26936,1.42357 l 9.28117,-7.59834 c 34.99801,-29.67389 71.77006,-57.32548 110.1252,-82.80832 5.22132,-3.5435 11.29123,-5.73025 17.63425,-6.35209 L 353.92908,72.058307 c -2.9965,5.455283 -7.38517,10.072877 -12.7497,13.413373 z m 0,0"
     id="path4926" /><path
     style="stroke-width:0.66825378"
     inkscape:connector-curvature="0"
     d="m 400.49144,118.05951 5.06223,-3.29169 c 1.34178,-0.87366 2.27256,-2.22785 2.58547,-3.76705 0.31291,-1.53663 -0.0186,-3.13235 -0.92016,-4.43515 L 373.22863,57.522008 c -0.9016,-1.300219 -2.29907,-2.202158 -3.88747,-2.505375 -1.58577,-0.300639 -3.23252,0.01803 -4.57697,0.894229 l -5.05955,3.28911 29.96494,43.254268 z m 0,0"
     id="path4928" /><path
     style="stroke-width:0.66825378"
     inkscape:connector-curvature="0"
     d="m 196.66343,310.65708 c -0.27048,-0.54733 -0.50649,-1.11007 -0.70802,-1.6831 h -43.49693 c 1.19064,11.54527 5.88163,22.49182 13.48423,31.45976 z m 0,0"
     id="path4930" /><path
     style="stroke-width:0.66825378"
     inkscape:connector-curvature="0"
     d="m 66.779916,360.21462 v 19.10506 c -0.0054,1.65227 0.705369,3.23257 1.95701,4.35292 1.22246,1.11522 2.877158,1.67539 4.550417,1.54435 24.088651,-1.37475 47.729137,-6.89942 69.818357,-16.31448 -1.24898,-1.24882 -2.35477,-2.60558 -3.52419,-3.91351 -0.70273,-0.77859 -1.42665,-1.52378 -2.09755,-2.32036 -1.3418,-1.59573 -2.58017,-3.26341 -3.80528,-4.93366 -0.66559,-0.9045 -1.34711,-1.77303 -1.98087,-2.71865 -1.11109,-1.63171 -2.13468,-3.30966 -3.13439,-5.0056 -0.65234,-1.09209 -1.29407,-2.17904 -1.89602,-3.29681 -0.86183,-1.60087 -1.66,-3.23258 -2.43962,-4.87969 -0.60991,-1.33621 -1.21982,-2.67755 -1.76872,-4.04201 -0.33678,-0.81714 -0.75047,-1.59573 -1.06072,-2.42314 -15.51549,8.86002 -32.364803,15.30461 -49.940716,19.10249 -2.752526,0.62443 -4.690964,3.00645 -4.677708,5.74309 z m 0,0"
     id="path4932" /><path
     style="stroke-width:0.66825378"
     inkscape:connector-curvature="0"
     d="m 229.59042,310.65708 30.72601,29.77666 c 7.59996,-8.96794 12.28828,-19.91449 13.47628,-31.45976 h -43.49428 c -0.20418,0.57303 -0.4402,1.13577 -0.70801,1.6831 z m 0,0"
     id="path4934" /><path
     style="stroke-width:0.66825378"
     inkscape:connector-curvature="0"
     d="m 174.5636,348.78755 c 9.25467,7.36451 20.54854,11.91016 32.46558,13.06392 v -42.14679 c -0.59398,-0.19786 -1.17208,-0.42912 -1.73955,-0.69123 z m 0,0"
     id="path4936" /><path
     style="stroke-width:0.66825378"
     inkscape:connector-curvature="0"
     d="m 147.34853,355.73065 c 22.51614,26.4927 59.57459,36.76345 93.14064,25.81432 33.56606,-10.95169 56.66825,-40.84913 58.06308,-75.1406 1.39482,-34.29405 -19.20674,-65.86173 -51.77839,-79.33934 -1.21981,-0.51908 -2.51122,-0.93791 -3.76817,-1.39274 -1.40278,-0.50878 -2.7817,-1.05869 -4.21365,-1.49552 -1.4346,-0.43683 -2.82944,-0.74005 -4.26934,-1.09465 -1.43725,-0.3546 -2.69419,-0.74263 -4.07842,-1.02013 -1.58575,-0.3135 -3.19538,-0.4985 -4.7997,-0.72721 -1.25693,-0.1773 -2.48736,-0.43169 -3.76285,-0.55503 -2.90899,-0.29293 -5.83124,-0.43684 -8.75614,-0.4394 -2.85861,0 -5.68804,0.14903 -8.47504,0.4137 -0.68415,0.0668 -1.34711,0.203 -2.02596,0.27752 -2.12671,0.25439 -4.26668,0.53962 -6.32711,0.94048 -0.6099,0.1182 -1.21981,0.28266 -1.80055,0.41371 -2.15853,0.46766 -4.29851,0.97388 -6.39606,1.59573 -0.41366,0.12334 -0.81674,0.27238 -1.21981,0.40085 -2.28582,0.72206 -4.54248,1.50065 -6.74344,2.40002 -0.19624,0.0771 -0.38981,0.17217 -0.60991,0.24669 -39.93825,16.49948 -60.68568,59.45826 -48.17199,99.74207 0.17767,0.59101 0.358,1.1409 0.54892,1.71393 0.71332,2.13278 1.49826,4.23729 2.37864,6.29298 0.0901,0.20043 0.1644,0.40856 0.24926,0.59101 2.1055,4.77177 4.66711,9.34568 7.653,13.65492 l 0.37654,0.53191 c 1.43461,2.0377 2.95938,4.00602 4.569,5.9101 z m -7.39578,-52.6642 c -0.0109,-18.72734 7.65034,-36.69149 21.29898,-49.94813 0.0558,-0.0591 0.0743,-0.13619 0.13525,-0.19016 0.061,-0.054 0.13259,-0.0771 0.19357,-0.12848 28.49589,-27.51798 74.5942,-27.51798 103.09008,0 0.061,0.0513 0.14053,0.0694 0.19623,0.12848 0.0529,0.0591 0.0769,0.13106 0.13259,0.19016 28.39776,27.61306 28.39776,72.28062 0,99.89367 -0.0558,0.0591 -0.0716,0.13619 -0.13259,0.19016 -0.061,0.054 -0.13523,0.0771 -0.19623,0.12848 -28.49588,27.51798 -74.59419,27.51798 -103.09008,0 -0.061,-0.0513 -0.13789,-0.0694 -0.19357,-0.12848 -0.0558,-0.0591 -0.0795,-0.13105 -0.13525,-0.19016 -13.64864,-13.25662 -21.30959,-31.22078 -21.29898,-49.94554 z m 0,0"
     id="path4938" /><path
     style="stroke-width:0.66825378"
     inkscape:connector-curvature="0"
     d="m 230.29843,297.15634 h 43.49428 c -1.19064,-11.54527 -5.88163,-22.49182 -13.48158,-31.45976 l -30.72071,29.77665 c 0.26781,0.54734 0.50383,1.11008 0.70801,1.68311 z m 0,0"
     id="path4940" /><path
     style="stroke-width:0.66825378"
     inkscape:connector-curvature="0"
     d="m 219.22467,319.70468 v 42.14679 c 11.91438,-1.15376 23.2109,-5.69941 32.46292,-13.06392 l -30.72603,-29.76896 c -0.56482,0.25953 -1.14557,0.48823 -1.73689,0.68609 z m 0,0"
     id="path4942" /><path
     style="stroke-width:0.66825378"
     inkscape:connector-curvature="0"
     d="m 219.22467,303.06645 c 0,3.26083 -2.73134,5.90753 -6.09908,5.90753 -3.36774,0 -6.09641,-2.6467 -6.09641,-5.90753 0,-3.26341 2.72867,-5.91011 6.09641,-5.91011 3.36774,0 6.09908,2.6467 6.09908,5.91011 z m 0,0"
     id="path4944" /><path
     style="stroke-width:0.66825378"
     inkscape:connector-curvature="0"
     d="m 126.20865,203.052 c -2.22219,-2.639 -4.19776,-5.46301 -5.90814,-8.43861 -5.66417,-9.09386 -13.43384,-21.54363 -29.129648,-21.54363 -3.367748,0 -6.096418,2.64669 -6.096418,5.9101 0,3.26341 2.72867,5.90755 6.096418,5.90755 8.201922,0 12.725828,6.26985 18.689638,15.83651 1.98619,3.36362 4.24814,6.56794 6.76997,9.57952 -1.11639,0.71435 -2.20362,1.35161 -3.32532,2.08395 -12.42617,8.08401 -19.318106,17.69178 -20.482236,28.55868 -0.55157,10.30927 2.56692,20.49265 8.835686,28.84132 4.06515,6.05915 9.41377,11.21123 15.6958,15.10933 0.0424,-0.20815 0.11137,-0.40857 0.1538,-0.59102 0.10338,-0.4728 0.24397,-0.92762 0.34738,-1.40043 0.57279,-2.56447 1.21981,-5.08784 2.01271,-7.56494 0.12197,-0.38287 0.25985,-0.75032 0.3898,-1.12807 0.86183,-2.62358 1.83236,-5.18289 2.91429,-7.68057 0.0663,-0.15417 0.13259,-0.30835 0.20682,-0.46252 8.98685,-20.52093 25.1918,-37.29022 45.73237,-47.32199 l -19.6151,-28.31712 c -7.50185,4.28355 -15.08061,8.86515 -22.72035,13.5547 -0.1591,-0.32634 -0.35003,-0.63983 -0.56747,-0.93276 z m 0,0"
     id="path4946" /><path
     style="stroke-width:0.66825378"
     inkscape:connector-curvature="0"
     d="m 414.35223,368.06222 c 0,13.05362 -10.91998,23.63529 -24.39094,23.63529 -13.47098,0 -24.39096,-10.58167 -24.39096,-23.63529 0,-13.05363 10.91998,-23.63531 24.39096,-23.63531 13.47096,0 24.39094,10.58168 24.39094,23.63531 z m 0,0"
     id="path4948" /><path
     style="stroke-width:0.66825378"
     inkscape:connector-curvature="0"
     d="m 383.86222,320.79163 c 0,13.05362 -10.91998,23.63528 -24.39095,23.63528 -13.46832,0 -24.39094,-10.58166 -24.39094,-23.63528 0,-13.05362 10.92262,-23.63529 24.39094,-23.63529 13.47097,0 24.39095,10.58167 24.39095,23.63529 z m 0,0"
     id="path4950" /><path
     style="stroke-width:0.66825378"
     inkscape:connector-curvature="0"
     d="m 353.37486,368.06222 c 0,13.05362 -10.91997,23.63529 -24.39094,23.63529 -13.47098,0 -24.39094,-10.58167 -24.39094,-23.63529 0,-13.05363 10.91996,-23.63531 24.39094,-23.63531 13.47097,0 24.39094,10.58168 24.39094,23.63531 z m 0,0"
     id="path4952" /><text
     xml:space="preserve"
     style="font-style:normal;font-variant:normal;font-weight:normal;font-stretch:normal;font-size:26.66666603px;line-height:1.25;font-family:sans-serif;-inkscape-font-specification:'sans-serif, Normal';font-variant-ligatures:normal;font-variant-caps:normal;font-variant-numeric:normal;font-feature-settings:normal;text-align:start;letter-spacing:0px;word-spacing:0px;writing-mode:lr-tb;text-anchor:start;fill:#000000;fill-opacity:1;stroke:none"
     x="175.53139"
     y="439.29062"
     id="text5341"><tspan
       sodipodi:role="line"
       id="tspan5343"
       x="175.53139"
       y="439.29062">Campaign</tspan></text>
</g></svg>