<?xml version="1.0" encoding="UTF-8" standalone="no"?>
<!-- Generator: Adobe Illustrator 16.0.4, SVG Export Plug-In . SVG Version: 6.00 Build 0)  -->

<svg
   xmlns:dc="http://purl.org/dc/elements/1.1/"
   xmlns:cc="http://creativecommons.org/ns#"
   xmlns:rdf="http://www.w3.org/1999/02/22-rdf-syntax-ns#"
   xmlns:svg="http://www.w3.org/2000/svg"
   xmlns="http://www.w3.org/2000/svg"
   xmlns:sodipodi="http://sodipodi.sourceforge.net/DTD/sodipodi-0.dtd"
   xmlns:inkscape="http://www.inkscape.org/namespaces/inkscape"
   version="1.1"
   id="Calque_1"
   x="0px"
   y="0px"
   width="595.279px"
   height="621px"
   viewBox="0 40.445 595.279 621"
   enable-background="new 0 40.445 595.279 621"
   xml:space="preserve"
   sodipodi:docname="case.svg"
   inkscape:version="0.92.4 (5da689c313, 2019-01-14)"><metadata
   id="metadata999"><rdf:RDF><cc:Work
       rdf:about=""><dc:format>image/svg+xml</dc:format><dc:type
         rdf:resource="http://purl.org/dc/dcmitype/StillImage" /></cc:Work></rdf:RDF></metadata><defs
   id="defs997"><marker
     inkscape:stockid="DotL"
     orient="auto"
     refY="0.0"
     refX="0.0"
     id="marker5756"
     style="overflow:visible"
     inkscape:isstock="true"><path
       id="path5754"
       d="M -2.5,-1.0 C -2.5,1.7600000 -4.7400000,4.0 -7.5,4.0 C -10.260000,4.0 -12.5,1.7600000 -12.5,-1.0 C -12.5,-3.7600000 -10.260000,-6.0 -7.5,-6.0 C -4.7400000,-6.0 -2.5,-3.7600000 -2.5,-1.0 z "
       style="fill-rule:evenodd;stroke:#6e6e67;stroke-width:1pt;stroke-opacity:1;fill:#6e6e67;fill-opacity:1"
       transform="scale(0.8) translate(7.4, 1)" /></marker><marker
     inkscape:stockid="DotL"
     orient="auto"
     refY="0.0"
     refX="0.0"
     id="marker5620"
     style="overflow:visible"
     inkscape:isstock="true"><path
       id="path5618"
       d="M -2.5,-1.0 C -2.5,1.7600000 -4.7400000,4.0 -7.5,4.0 C -10.260000,4.0 -12.5,1.7600000 -12.5,-1.0 C -12.5,-3.7600000 -10.260000,-6.0 -7.5,-6.0 C -4.7400000,-6.0 -2.5,-3.7600000 -2.5,-1.0 z "
       style="fill-rule:evenodd;stroke:#6e6e67;stroke-width:1pt;stroke-opacity:1;fill:#6e6e67;fill-opacity:1"
       transform="scale(0.8) translate(7.4, 1)" /></marker><marker
     inkscape:stockid="DotL"
     orient="auto"
     refY="0.0"
     refX="0.0"
     id="marker5490"
     style="overflow:visible"
     inkscape:isstock="true"><path
       id="path5488"
       d="M -2.5,-1.0 C -2.5,1.7600000 -4.7400000,4.0 -7.5,4.0 C -10.260000,4.0 -12.5,1.7600000 -12.5,-1.0 C -12.5,-3.7600000 -10.260000,-6.0 -7.5,-6.0 C -4.7400000,-6.0 -2.5,-3.7600000 -2.5,-1.0 z "
       style="fill-rule:evenodd;stroke:#6e6e67;stroke-width:1pt;stroke-opacity:1;fill:#6e6e67;fill-opacity:1"
       transform="scale(0.8) translate(7.4, 1)" /></marker><marker
     inkscape:stockid="DotL"
     orient="auto"
     refY="0.0"
     refX="0.0"
     id="marker5366"
     style="overflow:visible"
     inkscape:isstock="true"><path
       id="path5364"
       d="M -2.5,-1.0 C -2.5,1.7600000 -4.7400000,4.0 -7.5,4.0 C -10.260000,4.0 -12.5,1.7600000 -12.5,-1.0 C -12.5,-3.7600000 -10.260000,-6.0 -7.5,-6.0 C -4.7400000,-6.0 -2.5,-3.7600000 -2.5,-1.0 z "
       style="fill-rule:evenodd;stroke:#6e6e67;stroke-width:1pt;stroke-opacity:1;fill:#6e6e67;fill-opacity:1"
       transform="scale(0.8) translate(7.4, 1)" /></marker><marker
     style="overflow:visible"
     id="marker2815"
     refX="0.0"
     refY="0.0"
     orient="auto"
     inkscape:stockid="DistanceStart"
     inkscape:isstock="true"><g
       id="g2813"
       style="stroke:#656563;stroke-opacity:0.57368421;fill:#656563;fill-opacity:0.57368421"><path
         style="fill:#656563;stroke:#656563;stroke-width:1.15;stroke-linecap:square;stroke-opacity:0.57368421;fill-opacity:0.57368421"
         d="M 0,0 L 2,0"
         id="path2807" /><path
         style="fill:#656563;fill-rule:evenodd;stroke:#656563;stroke-opacity:0.57368421;fill-opacity:0.57368421"
         d="M 0,0 L 13,4 L 9,0 13,-4 L 0,0 z "
         id="path2809" /><path
         style="fill:#656563;stroke:#656563;stroke-width:1;stroke-linecap:square;stroke-opacity:0.57368421;fill-opacity:0.57368421"
         d="M 0,-4 L 0,40"
         id="path2811" /></g></marker><marker
     inkscape:isstock="true"
     inkscape:stockid="DistanceStart"
     orient="auto"
     refY="0.0"
     refX="0.0"
     id="marker2504"
     style="overflow:visible"><g
       style="stroke:#000000;stroke-opacity:1;fill:#000000;fill-opacity:1"
       id="g2502"><path
         id="path2496"
         d="M 0,0 L 2,0"
         style="fill:#000000;stroke:#000000;stroke-width:1.15;stroke-linecap:square;stroke-opacity:1;fill-opacity:1" /><path
         id="path2498"
         d="M 0,0 L 13,4 L 9,0 13,-4 L 0,0 z "
         style="fill:#000000;fill-rule:evenodd;stroke:#000000;stroke-opacity:1;fill-opacity:1" /><path
         id="path2500"
         d="M 0,-4 L 0,40"
         style="fill:#000000;stroke:#000000;stroke-width:1;stroke-linecap:square;stroke-opacity:1;fill-opacity:1" /></g></marker><marker
     inkscape:isstock="true"
     inkscape:stockid="DistanceStart"
     orient="auto"
     refY="0.0"
     refX="0.0"
     id="marker2386"
     style="overflow:visible"><g
       style="stroke:#000000;stroke-opacity:1;fill:#000000;fill-opacity:1"
       id="g2384"><path
         id="path2378"
         d="M 0,0 L 2,0"
         style="fill:#000000;stroke:#000000;stroke-width:1.15;stroke-linecap:square;stroke-opacity:1;fill-opacity:1" /><path
         id="path2380"
         d="M 0,0 L 13,4 L 9,0 13,-4 L 0,0 z "
         style="fill:#000000;fill-rule:evenodd;stroke:#000000;stroke-opacity:1;fill-opacity:1" /><path
         id="path2382"
         d="M 0,-4 L 0,40"
         style="fill:#000000;stroke:#000000;stroke-width:1;stroke-linecap:square;stroke-opacity:1;fill-opacity:1" /></g></marker><marker
     inkscape:isstock="true"
     inkscape:stockid="DistanceStart"
     orient="auto"
     refY="0.0"
     refX="0.0"
     id="marker2361"
     style="overflow:visible"><g
       style="stroke:#000000;stroke-opacity:1;fill:#000000;fill-opacity:1"
       id="g2359"><path
         id="path2353"
         d="M 0,0 L 2,0"
         style="fill:#000000;stroke:#000000;stroke-width:1.15;stroke-linecap:square;stroke-opacity:1;fill-opacity:1" /><path
         id="path2355"
         d="M 0,0 L 13,4 L 9,0 13,-4 L 0,0 z "
         style="fill:#000000;fill-rule:evenodd;stroke:#000000;stroke-opacity:1;fill-opacity:1" /><path
         id="path2357"
         d="M 0,-4 L 0,40"
         style="fill:#000000;stroke:#000000;stroke-width:1;stroke-linecap:square;stroke-opacity:1;fill-opacity:1" /></g></marker><marker
     inkscape:isstock="true"
     style="overflow:visible;"
     id="marker2181"
     refX="0.0"
     refY="0.0"
     orient="auto"
     inkscape:stockid="Arrow2Send"><path
       transform="scale(0.3) rotate(180) translate(-2.3,0)"
       d="M 8.7185878,4.0337352 L -2.2072895,0.016013256 L 8.7185884,-4.0017078 C 6.9730900,-1.6296469 6.9831476,1.6157441 8.7185878,4.0337352 z "
       style="fill-rule:evenodd;stroke-width:0.625;stroke-linejoin:round;stroke:#000000;stroke-opacity:1;fill:#000000;fill-opacity:1"
       id="path2179" /></marker><marker
     inkscape:isstock="true"
     style="overflow:visible;"
     id="marker2123"
     refX="0.0"
     refY="0.0"
     orient="auto"
     inkscape:stockid="Arrow2Send"><path
       transform="scale(0.3) rotate(180) translate(-2.3,0)"
       d="M 8.7185878,4.0337352 L -2.2072895,0.016013256 L 8.7185884,-4.0017078 C 6.9730900,-1.6296469 6.9831476,1.6157441 8.7185878,4.0337352 z "
       style="fill-rule:evenodd;stroke-width:0.625;stroke-linejoin:round;stroke:#000000;stroke-opacity:1;fill:#000000;fill-opacity:1"
       id="path2121" /></marker><marker
     inkscape:isstock="true"
     style="overflow:visible;"
     id="marker2071"
     refX="0.0"
     refY="0.0"
     orient="auto"
     inkscape:stockid="Arrow2Send"><path
       transform="scale(0.3) rotate(180) translate(-2.3,0)"
       d="M 8.7185878,4.0337352 L -2.2072895,0.016013256 L 8.7185884,-4.0017078 C 6.9730900,-1.6296469 6.9831476,1.6157441 8.7185878,4.0337352 z "
       style="fill-rule:evenodd;stroke-width:0.625;stroke-linejoin:round;stroke:#000000;stroke-opacity:1;fill:#000000;fill-opacity:1"
       id="path2069" /></marker><marker
     inkscape:isstock="true"
     style="overflow:visible;"
     id="marker2061"
     refX="0.0"
     refY="0.0"
     orient="auto"
     inkscape:stockid="Arrow2Send"><path
       transform="scale(0.3) rotate(180) translate(-2.3,0)"
       d="M 8.7185878,4.0337352 L -2.2072895,0.016013256 L 8.7185884,-4.0017078 C 6.9730900,-1.6296469 6.9831476,1.6157441 8.7185878,4.0337352 z "
       style="fill-rule:evenodd;stroke-width:0.625;stroke-linejoin:round;stroke:#000000;stroke-opacity:1;fill:#000000;fill-opacity:1"
       id="path2059" /></marker><marker
     inkscape:isstock="true"
     style="overflow:visible"
     id="marker1965"
     refX="0.0"
     refY="0.0"
     orient="auto"
     inkscape:stockid="DotL"
     inkscape:collect="always"><path
       transform="scale(0.8) translate(7.4, 1)"
       style="fill-rule:evenodd;stroke:#6e6e67;stroke-width:1pt;stroke-opacity:1;fill:#6e6e67;fill-opacity:1"
       d="M -2.5,-1.0 C -2.5,1.7600000 -4.7400000,4.0 -7.5,4.0 C -10.260000,4.0 -12.5,1.7600000 -12.5,-1.0 C -12.5,-3.7600000 -10.260000,-6.0 -7.5,-6.0 C -4.7400000,-6.0 -2.5,-3.7600000 -2.5,-1.0 z "
       id="path1963" /></marker><marker
     inkscape:isstock="true"
     style="overflow:visible"
     id="marker1931"
     refX="0.0"
     refY="0.0"
     orient="auto"
     inkscape:stockid="DotL"><path
       transform="scale(0.8) translate(7.4, 1)"
       style="fill-rule:evenodd;stroke:#000000;stroke-width:1pt;stroke-opacity:1;fill:#000000;fill-opacity:1"
       d="M -2.5,-1.0 C -2.5,1.7600000 -4.7400000,4.0 -7.5,4.0 C -10.260000,4.0 -12.5,1.7600000 -12.5,-1.0 C -12.5,-3.7600000 -10.260000,-6.0 -7.5,-6.0 C -4.7400000,-6.0 -2.5,-3.7600000 -2.5,-1.0 z "
       id="path1929" /></marker><marker
     inkscape:isstock="true"
     style="overflow:visible"
     id="marker1903"
     refX="0.0"
     refY="0.0"
     orient="auto"
     inkscape:stockid="DotL"><path
       transform="scale(0.8) translate(7.4, 1)"
       style="fill-rule:evenodd;stroke:#000000;stroke-width:1pt;stroke-opacity:1;fill:#000000;fill-opacity:1"
       d="M -2.5,-1.0 C -2.5,1.7600000 -4.7400000,4.0 -7.5,4.0 C -10.260000,4.0 -12.5,1.7600000 -12.5,-1.0 C -12.5,-3.7600000 -10.260000,-6.0 -7.5,-6.0 C -4.7400000,-6.0 -2.5,-3.7600000 -2.5,-1.0 z "
       id="path1901" /></marker><marker
     inkscape:isstock="true"
     style="overflow:visible"
     id="marker1881"
     refX="0.0"
     refY="0.0"
     orient="auto"
     inkscape:stockid="DotL"><path
       transform="scale(0.8) translate(7.4, 1)"
       style="fill-rule:evenodd;stroke:#000000;stroke-width:1pt;stroke-opacity:1;fill:#000000;fill-opacity:1"
       d="M -2.5,-1.0 C -2.5,1.7600000 -4.7400000,4.0 -7.5,4.0 C -10.260000,4.0 -12.5,1.7600000 -12.5,-1.0 C -12.5,-3.7600000 -10.260000,-6.0 -7.5,-6.0 C -4.7400000,-6.0 -2.5,-3.7600000 -2.5,-1.0 z "
       id="path1879" /></marker></defs><sodipodi:namedview
   pagecolor="#ffffff"
   bordercolor="#666666"
   borderopacity="1"
   objecttolerance="10"
   gridtolerance="10"
   guidetolerance="10"
   inkscape:pageopacity="0"
   inkscape:pageshadow="2"
   inkscape:window-width="1920"
   inkscape:window-height="1017"
   id="namedview995"
   showgrid="false"
   inkscape:zoom="0.76006441"
   inkscape:cx="-29.964318"
   inkscape:cy="101.5157"
   inkscape:window-x="-8"
   inkscape:window-y="-8"
   inkscape:window-maximized="1"
   inkscape:current-layer="Calque_1" />
<title
   id="title986">12</title>
<ellipse
   style="opacity:1;fill:#ffffff;fill-opacity:1;stroke:#010000;stroke-width:0.95931911;stroke-opacity:0"
   id="path1583"
   cx="296.02753"
   cy="351.60284"
   rx="296.04785"
   ry="308.54684" /><path
   style="display:inline;fill:none;fill-rule:evenodd;stroke:#6e6e67;stroke-width:2.4000001;stroke-linecap:butt;stroke-linejoin:miter;stroke-miterlimit:4;stroke-dasharray:none;stroke-opacity:1;marker-start:url(#marker5490)"
   d="M 168.40678,412.78186 296.02753,351.60284"
   id="path5342"
   inkscape:connector-type="polyline"
   inkscape:connector-curvature="0"
   inkscape:connection-end="#path1583" /><path
   style="fill:none;fill-rule:evenodd;stroke:#6e6e67;stroke-width:2.43770909;stroke-linecap:butt;stroke-linejoin:miter;stroke-miterlimit:4;stroke-dasharray:none;stroke-opacity:1;marker-start:url(#marker5620)"
   d="M 319.65678,554.57602 296.15416,351.46971"
   id="path5344"
   inkscape:connector-type="polyline"
   inkscape:connector-curvature="0" /><path
   style="fill:none;fill-rule:evenodd;stroke:#6e6e67;stroke-width:2.5034101;stroke-linecap:butt;stroke-linejoin:miter;stroke-miterlimit:4;stroke-dasharray:none;stroke-opacity:1;marker-start:url(#marker5756)"
   d="M 394.11393,247.36765 295.95122,351.45403"
   id="path5346"
   inkscape:connector-type="polyline"
   inkscape:connector-curvature="0" /><path
   style="fill:none;fill-rule:evenodd;stroke:#6e6e67;stroke-width:2.40733027;stroke-linecap:butt;stroke-linejoin:miter;stroke-miterlimit:4;stroke-dasharray:none;stroke-opacity:1;marker-start:url(#marker1965)"
   d="m 297.34323,147.08421 -1.30668,204.59381"
   id="path5348"
   inkscape:connector-type="polyline"
   inkscape:connector-curvature="0" /><path
   style="fill:none;fill-rule:evenodd;stroke:#6e6e67;stroke-width:2.4000001;stroke-linecap:butt;stroke-linejoin:miter;stroke-miterlimit:4;stroke-dasharray:none;stroke-opacity:1;marker-start:url(#marker5366)"
   d="M 142.09322,197.01068 296.02753,351.60284"
   id="path5350"
   inkscape:connector-type="polyline"
   inkscape:connector-curvature="0" />


<ellipse
   style="opacity:1;fill:#76f39a;fill-opacity:1;stroke:#51e000;stroke-width:1.24832273;stroke-opacity:1"
   id="path1544"
   cx="298.43677"
   cy="348.35486"
   rx="84.073837"
   ry="83.463127" /><ellipse
   style="opacity:1;fill:#f49e1f;fill-opacity:1;stroke:#51e000;stroke-width:1.08759856;stroke-opacity:0"
   id="path1546"
   cx="119.46867"
   cy="171.29829"
   rx="36.537159"
   ry="36.080677" /><ellipse
   style="opacity:1;fill:#f440eb;fill-opacity:1;stroke:#51e000;stroke-width:1.08759856;stroke-opacity:0"
   id="path1546-0"
   cx="298.65891"
   cy="114.12296"
   rx="36.537159"
   ry="36.080677" /><ellipse
   style="opacity:1;fill:#0ff2d5;fill-opacity:1;stroke:#51e000;stroke-width:1.08759856;stroke-opacity:0"
   id="path1546-5"
   cx="417.06992"
   cy="224.63994"
   rx="36.537159"
   ry="36.080677" /><ellipse
   style="opacity:1;fill:#f42b1f;fill-opacity:1;stroke:#51e000;stroke-width:1.08759856;stroke-opacity:0"
   id="path1546-9"
   cx="324.9725"
   cy="586.45135"
   rx="36.537159"
   ry="36.080677" /><ellipse
   style="opacity:1;fill:#ffff1f;fill-opacity:1;stroke:#ff2a00;stroke-width:1.08759856;stroke-opacity:0"
   id="path1546-3"
   cx="135.51483"
   cy="423.30731"
   rx="36.537159"
   ry="36.080677"
   inkscape:transform-center-x="5.2627119"
   inkscape:transform-center-y="3.947034" /><flowRoot
   xml:space="preserve"
   id="flowRoot4755"
   style="font-style:normal;font-weight:normal;font-size:40px;line-height:1.25;font-family:sans-serif;letter-spacing:0px;word-spacing:0px;fill:#000000;fill-opacity:1;stroke:none"
   transform="matrix(1.5403806,0,0,1.5660732,22.52512,-533.83022)"><flowRegion
     id="flowRegion4757"><rect
       id="rect4759"
       width="382.86227"
       height="81.572052"
       x="128.93645"
       y="538.1123" /></flowRegion><flowPara
     id="flowPara4761">Case</flowPara></flowRoot></svg>