<?xml version="1.0" encoding="UTF-8" standalone="no"?>
<!-- Generator: Adobe Illustrator 19.0.0, SVG Export Plug-In . SVG Version: 6.00 Build 0)  -->

<svg
   xmlns:dc="http://purl.org/dc/elements/1.1/"
   xmlns:cc="http://creativecommons.org/ns#"
   xmlns:rdf="http://www.w3.org/1999/02/22-rdf-syntax-ns#"
   xmlns:svg="http://www.w3.org/2000/svg"
   xmlns="http://www.w3.org/2000/svg"
   xmlns:sodipodi="http://sodipodi.sourceforge.net/DTD/sodipodi-0.dtd"
   xmlns:inkscape="http://www.inkscape.org/namespaces/inkscape"
   version="1.1"
   id="Capa_1"
   x="0px"
   y="0px"
   viewBox="0 0 480 480"
   style="enable-background:new 0 0 480 480;"
   xml:space="preserve"
   sodipodi:docname="course_of_action.svg"
   inkscape:version="0.92.4 (5da689c313, 2019-01-14)"><metadata
   id="metadata3929"><rdf:RDF><cc:Work
       rdf:about=""><dc:format>image/svg+xml</dc:format><dc:type
         rdf:resource="http://purl.org/dc/dcmitype/StillImage" /><dc:title /></cc:Work></rdf:RDF></metadata><defs
   id="defs3927" /><sodipodi:namedview
   pagecolor="#ffffff"
   bordercolor="#666666"
   borderopacity="1"
   objecttolerance="10"
   gridtolerance="10"
   guidetolerance="10"
   inkscape:pageopacity="0"
   inkscape:pageshadow="2"
   inkscape:window-width="1920"
   inkscape:window-height="1017"
   id="namedview3925"
   showgrid="false"
   inkscape:zoom="1.7666667"
   inkscape:cx="145.4717"
   inkscape:cy="259.9157"
   inkscape:window-x="-8"
   inkscape:window-y="-8"
   inkscape:window-maximized="1"
   inkscape:current-layer="layer1" />












<g
   id="g3894">
</g>
<g
   id="g3896">
</g>
<g
   id="g3898">
</g>
<g
   id="g3900">
</g>
<g
   id="g3902">
</g>
<g
   id="g3904">
</g>
<g
   id="g3906">
</g>
<g
   id="g3908">
</g>
<g
   id="g3910">
</g>
<g
   id="g3912">
</g>
<g
   id="g3914">
</g>
<g
   id="g3916">
</g>
<g
   id="g3918">
</g>
<g
   id="g3920">
</g>
<g
   id="g3922">
</g>
<g
   inkscape:groupmode="layer"
   id="layer2"
   inkscape:label="Layer 2"><ellipse
     style="opacity:1;fill:#f9be3b;fill-opacity:1;stroke-width:3.64509559"
     id="path4872"
     cx="241.41508"
     cy="239.99998"
     rx="236.88678"
     ry="236.60378" /></g><g
   inkscape:groupmode="layer"
   id="layer1"
   inkscape:label="Layer 1"><path
     inkscape:connector-curvature="0"
     d="m 389.29127,130.98113 h -57.09316 v -31.5283 c 0,-17.40625 -15.34378,-31.528301 -34.25589,-31.528301 H 183.7559 c -18.91211,0 -34.2559,14.122051 -34.2559,31.528301 v 31.5283 H 92.406843 c -18.91211,0 -34.25589,14.12205 -34.25589,31.52831 v 189.16981 c 0,17.40625 15.34378,31.5283 34.25589,31.5283 H 389.29127 c 18.91211,0 34.2559,-14.12205 34.2559,-31.5283 V 162.50944 c 0,-17.40626 -15.34379,-31.52831 -34.2559,-31.52831 z M 195.17453,109.96226 h 91.34906 v 21.01887 h -91.34906 z m 114.18632,162.89623 c 0,2.8901 -2.56919,5.25472 -5.70932,5.25472 h -39.96521 v 36.78302 c 0,2.89009 -2.56919,5.25471 -5.70931,5.25471 h -34.2559 c -3.14012,0 -5.70932,-2.36462 -5.70932,-5.25471 v -36.78302 h -39.96521 c -3.14012,0 -5.70932,-2.36462 -5.70932,-5.25472 v -31.5283 c 0,-2.89009 2.5692,-5.25472 5.70932,-5.25472 h 39.96521 v -36.78301 c 0,-2.8901 2.5692,-5.25472 5.70932,-5.25472 h 34.2559 c 3.14012,0 5.70931,2.36462 5.70931,5.25472 v 36.78301 h 39.96521 c 3.14013,0 5.70932,2.36463 5.70932,5.25472 z"
     id="path5103"
     style="stroke-width:0.68466276" /><text
     xml:space="preserve"
     style="font-style:normal;font-variant:normal;font-weight:normal;font-stretch:normal;font-size:26.66666603px;line-height:1.25;font-family:sans-serif;-inkscape-font-specification:'sans-serif, Normal';font-variant-ligatures:normal;font-variant-caps:normal;font-variant-numeric:normal;font-feature-settings:normal;text-align:start;letter-spacing:0px;word-spacing:0px;writing-mode:lr-tb;text-anchor:start;fill:#000000;fill-opacity:1;stroke:none"
     x="135.34271"
     y="424.00757"
     id="text5341"><tspan
       sodipodi:role="line"
       id="tspan5343"
       x="135.34271"
       y="424.00757">Course of Action</tspan></text>
</g></svg>