<?xml version="1.0" encoding="UTF-8" standalone="no"?>
<!-- Generator: Adobe Illustrator 19.0.0, SVG Export Plug-In . SVG Version: 6.00 Build 0)  -->

<svg
   xmlns:dc="http://purl.org/dc/elements/1.1/"
   xmlns:cc="http://creativecommons.org/ns#"
   xmlns:rdf="http://www.w3.org/1999/02/22-rdf-syntax-ns#"
   xmlns:svg="http://www.w3.org/2000/svg"
   xmlns="http://www.w3.org/2000/svg"
   xmlns:sodipodi="http://sodipodi.sourceforge.net/DTD/sodipodi-0.dtd"
   xmlns:inkscape="http://www.inkscape.org/namespaces/inkscape"
   version="1.1"
   id="Capa_1"
   x="0px"
   y="0px"
   viewBox="0 0 480 480"
   style="enable-background:new 0 0 480 480;"
   xml:space="preserve"
   sodipodi:docname="identity.svg"
   inkscape:version="0.92.4 (5da689c313, 2019-01-14)"><metadata
   id="metadata3929"><rdf:RDF><cc:Work
       rdf:about=""><dc:format>image/svg+xml</dc:format><dc:type
         rdf:resource="http://purl.org/dc/dcmitype/StillImage" /><dc:title /></cc:Work></rdf:RDF></metadata><defs
   id="defs3927" /><sodipodi:namedview
   pagecolor="#ffffff"
   bordercolor="#666666"
   borderopacity="1"
   objecttolerance="10"
   gridtolerance="10"
   guidetolerance="10"
   inkscape:pageopacity="0"
   inkscape:pageshadow="2"
   inkscape:window-width="1920"
   inkscape:window-height="1017"
   id="namedview3925"
   showgrid="false"
   inkscape:zoom="1.7666667"
   inkscape:cx="145.4717"
   inkscape:cy="259.9157"
   inkscape:window-x="-8"
   inkscape:window-y="-8"
   inkscape:window-maximized="1"
   inkscape:current-layer="layer1" />












<g
   id="g3894">
</g>
<g
   id="g3896">
</g>
<g
   id="g3898">
</g>
<g
   id="g3900">
</g>
<g
   id="g3902">
</g>
<g
   id="g3904">
</g>
<g
   id="g3906">
</g>
<g
   id="g3908">
</g>
<g
   id="g3910">
</g>
<g
   id="g3912">
</g>
<g
   id="g3914">
</g>
<g
   id="g3916">
</g>
<g
   id="g3918">
</g>
<g
   id="g3920">
</g>
<g
   id="g3922">
</g>
<g
   inkscape:groupmode="layer"
   id="layer2"
   inkscape:label="Layer 2"><ellipse
     style="opacity:1;fill:#f9be3b;fill-opacity:1;stroke-width:3.64509559"
     id="path4872"
     cx="241.41508"
     cy="239.99998"
     rx="236.88678"
     ry="236.60378" /></g><g
   inkscape:groupmode="layer"
   id="layer1"
   inkscape:label="Layer 1"><path
     inkscape:connector-curvature="0"
     class="st0"
     d="m 300.91045,272.24199 c -9.00664,-1.24669 -15.31127,-7.89577 -15.31127,-16.20707 v -24.10283 c 9.45694,-9.55803 15.76159,-22.025 17.11259,-36.15425 l 0.90067,-13.29812 c 4.95364,-2.49339 9.90729,-8.31131 12.15894,-15.79151 3.15233,-10.38915 0.45034,-19.53161 -6.75498,-20.36274 -0.90066,0 -1.80132,0 -3.15231,0 l 1.80132,-24.51838 C 310.81774,87.730666 282.44686,59.056593 246.42034,59.056593 h -11.2583 c -36.02651,0 -64.39739,28.674073 -62.14572,62.750497 l 1.80131,24.93396 c -0.90066,-0.41558 -1.80131,-0.41558 -2.70198,-0.41558 -7.20532,0.83113 -9.90728,9.97359 -6.75497,20.36274 2.25165,7.89575 7.65564,13.71369 12.60927,16.20709 l 0.90066,12.88254 c 0.90068,14.12925 7.2053,26.59622 16.66228,36.15425 v 24.10283 c 0,8.3113 -6.30465,14.96038 -15.31127,16.20707 -39.62918,6.23348 -106.278234,32.82971 -106.278234,61.0882 v 58.17925 H 407.18867 v -58.17925 c 0,-28.25849 -66.64906,-54.85472 -106.27822,-61.0882 z"
     id="path5145"
     style="stroke-width:4.32599688" /><text
     xml:space="preserve"
     style="font-style:normal;font-variant:normal;font-weight:normal;font-stretch:normal;font-size:26.66666603px;line-height:1.25;font-family:sans-serif;-inkscape-font-specification:'sans-serif, Normal';font-variant-ligatures:normal;font-variant-caps:normal;font-variant-numeric:normal;font-feature-settings:normal;text-align:start;letter-spacing:0px;word-spacing:0px;writing-mode:lr-tb;text-anchor:start;fill:#000000;fill-opacity:1;stroke:none"
     x="190.24837"
     y="431.9321"
     id="text5341"><tspan
       sodipodi:role="line"
       id="tspan5343"
       x="190.24837"
       y="431.9321">Identity</tspan></text>
</g></svg>