<?xml version="1.0" encoding="UTF-8" standalone="no"?>
<!-- Generator: Adobe Illustrator 19.0.0, SVG Export Plug-In . SVG Version: 6.00 Build 0)  -->

<svg
   xmlns:sketch="http://www.bohemiancoding.com/sketch/ns"
   xmlns:dc="http://purl.org/dc/elements/1.1/"
   xmlns:cc="http://creativecommons.org/ns#"
   xmlns:rdf="http://www.w3.org/1999/02/22-rdf-syntax-ns#"
   xmlns:svg="http://www.w3.org/2000/svg"
   xmlns="http://www.w3.org/2000/svg"
   xmlns:sodipodi="http://sodipodi.sourceforge.net/DTD/sodipodi-0.dtd"
   xmlns:inkscape="http://www.inkscape.org/namespaces/inkscape"
   version="1.1"
   id="Capa_1"
   x="0px"
   y="0px"
   viewBox="0 0 480 480"
   style="enable-background:new 0 0 480 480;"
   xml:space="preserve"
   sodipodi:docname="intrusion_set.svg"
   inkscape:version="0.92.4 (5da689c313, 2019-01-14)"><metadata
   id="metadata3929"><rdf:RDF><cc:Work
       rdf:about=""><dc:format>image/svg+xml</dc:format><dc:type
         rdf:resource="http://purl.org/dc/dcmitype/StillImage" /><dc:title></dc:title></cc:Work></rdf:RDF></metadata><defs
   id="defs3927" /><sodipodi:namedview
   pagecolor="#ffffff"
   bordercolor="#666666"
   borderopacity="1"
   objecttolerance="10"
   gridtolerance="10"
   guidetolerance="10"
   inkscape:pageopacity="0"
   inkscape:pageshadow="2"
   inkscape:window-width="1920"
   inkscape:window-height="1017"
   id="namedview3925"
   showgrid="false"
   inkscape:zoom="1.7666667"
   inkscape:cx="240"
   inkscape:cy="259.9157"
   inkscape:window-x="-8"
   inkscape:window-y="-8"
   inkscape:window-maximized="1"
   inkscape:current-layer="layer2" />












<g
   id="g3894">
</g>
<g
   id="g3896">
</g>
<g
   id="g3898">
</g>
<g
   id="g3900">
</g>
<g
   id="g3902">
</g>
<g
   id="g3904">
</g>
<g
   id="g3906">
</g>
<g
   id="g3908">
</g>
<g
   id="g3910">
</g>
<g
   id="g3912">
</g>
<g
   id="g3914">
</g>
<g
   id="g3916">
</g>
<g
   id="g3918">
</g>
<g
   id="g3920">
</g>
<g
   id="g3922">
</g>
<g
   inkscape:groupmode="layer"
   id="layer2"
   inkscape:label="Layer 2"><ellipse
     style="opacity:1;fill:#f9be3b;fill-opacity:1;stroke-width:3.64509559"
     id="path4872"
     cx="241.41508"
     cy="239.99998"
     rx="236.88678"
     ry="236.60378" /><g
     transform="matrix(11.298235,0,0,12.280323,57.541393,16.345012)"
     style="fill:none;fill-rule:evenodd;stroke:none;stroke-width:1"
     id="Page-1"
     sketch:type="MSPage"><g
       style="fill:#000000"
       id="icon-35-umbrella"
       sketch:type="MSArtboardGroup"><path
         inkscape:connector-curvature="0"
         d="M 29.5,12 C 30.880712,12 32,12.89543 32,14 32,8.585087 25.329009,4.1753963 17,4.0051044 V 2.4993845 C 17,2.2235821 16.768066,2 16.5,2 16.223858,2 16,2.2161264 16,2.4993845 V 4.0051044 C 7.6709913,4.1753963 1,8.585087 1,14 1,12.89543 2.1192881,12 3.5,12 4.8807119,12 6,12.89543 6,14 c 0,-1.10457 1.1192881,-2 2.5,-2 1.3807119,0 2.5,0.89543 2.5,2 0,-1.10457 1.119288,-2 2.5,-2 1.380712,0 2.5,0.89543 2.5,2 v 11.120389 2.888833 C 16,28.549025 15.552285,29 15,29 14.443865,29 14,28.556414 14,28.009222 V 27.122658 26.504684 C 14,26.225955 13.768066,26 13.5,26 13.223858,26 13,26.214035 13,26.504684 v 0.742974 0.751299 C 13,29.104102 13.88773,30 15,30 c 1.104569,0 2,-0.88773 2,-2 V 26.5 14 c 0,-1.10457 1.119288,-2 2.5,-2 1.380712,0 2.5,0.89543 2.5,2 0,-1.10457 1.119288,-2 2.5,-2 1.380712,0 2.5,0.89543 2.5,2 0,-1.10457 1.119288,-2 2.5,-2 z M 16,11.900436 C 15.364741,11.344772 14.479344,11 13.5,11 c -0.893987,0 -1.709691,0.287292 -2.328301,0.760041 v 0 C 11.740141,8.1285901 13.658494,5.3819696 16,5.0366897 Z m 1,0 C 17.635258,11.344772 18.520656,11 19.5,11 c 0.893988,0 1.709691,0.287292 2.328301,0.760041 C 21.259859,8.1285901 19.341506,5.3819696 17,5.0366897 Z M 10.223878,11.388523 C 9.715021,11.141204 9.1267489,11 8.5,11 7.6992783,11 6.9613588,11.230475 6.3716099,11.618252 v 0 C 7.2891466,8.7450191 9.8262872,6.4454522 13.089574,5.4853726 11.701019,6.8045499 10.659388,8.9051881 10.223878,11.388523 Z m 12.552244,0 C 23.284979,11.141204 23.873251,11 24.5,11 c 0.800722,0 1.538641,0.230475 2.12839,0.618252 -0.917537,-2.8732329 -3.454677,-5.1727998 -6.717964,-6.1328794 1.388555,1.3191773 2.430186,3.4198155 2.865696,5.9031504 z M 5.3727073,11.465102 C 4.8311802,11.170562 4.1888283,11 3.5,11 3.2568629,11 3.0195163,11.02125 2.7903502,11.061702 3.9487688,8.9790253 6.3043146,7.2427336 9.3464392,6.1697191 7.4293077,7.4958304 6.0102536,9.3431119 5.3727073,11.465102 Z M 23.653561,6.1697191 c 3.042124,1.0730145 5.39767,2.8093062 6.556089,4.8919829 C 29.980484,11.02125 29.743137,11 29.5,11 28.811172,11 28.16882,11.170562 27.627293,11.465102 26.989746,9.3431119 25.570692,7.4958304 23.653561,6.1697191 Z"
         id="umbrella"
         sketch:type="MSShapeGroup" /></g></g><text
     xml:space="preserve"
     style="font-style:normal;font-variant:normal;font-weight:normal;font-stretch:normal;font-size:26.66666603px;line-height:1.25;font-family:sans-serif;-inkscape-font-specification:'sans-serif, Normal';font-variant-ligatures:normal;font-variant-caps:normal;font-variant-numeric:normal;font-feature-settings:normal;text-align:start;letter-spacing:0px;word-spacing:0px;writing-mode:lr-tb;text-anchor:start;fill:#000000;fill-opacity:1;stroke:none"
     x="154.52831"
     y="445.47168"
     id="text5341"><tspan
       sodipodi:role="line"
       id="tspan5343"
       x="154.52831"
       y="445.47168">Intrusion Set</tspan></text>
</g><g
   inkscape:groupmode="layer"
   id="layer1"
   inkscape:label="Layer 1" /></svg>