<?xml version="1.0" encoding="UTF-8" standalone="no"?>
<!-- Generator: Adobe Illustrator 19.0.0, SVG Export Plug-In . SVG Version: 6.00 Build 0)  -->

<svg
   xmlns:dc="http://purl.org/dc/elements/1.1/"
   xmlns:cc="http://creativecommons.org/ns#"
   xmlns:rdf="http://www.w3.org/1999/02/22-rdf-syntax-ns#"
   xmlns:svg="http://www.w3.org/2000/svg"
   xmlns="http://www.w3.org/2000/svg"
   xmlns:sodipodi="http://sodipodi.sourceforge.net/DTD/sodipodi-0.dtd"
   xmlns:inkscape="http://www.inkscape.org/namespaces/inkscape"
   version="1.1"
   id="Capa_1"
   x="0px"
   y="0px"
   viewBox="0 0 480 480"
   style="enable-background:new 0 0 480 480;"
   xml:space="preserve"
   sodipodi:docname="report.svg"
   inkscape:version="0.92.4 (5da689c313, 2019-01-14)"><metadata
   id="metadata3929"><rdf:RDF><cc:Work
       rdf:about=""><dc:format>image/svg+xml</dc:format><dc:type
         rdf:resource="http://purl.org/dc/dcmitype/StillImage" /><dc:title></dc:title></cc:Work></rdf:RDF></metadata><defs
   id="defs3927" /><sodipodi:namedview
   pagecolor="#ffffff"
   bordercolor="#666666"
   borderopacity="1"
   objecttolerance="10"
   gridtolerance="10"
   guidetolerance="10"
   inkscape:pageopacity="0"
   inkscape:pageshadow="2"
   inkscape:window-width="1370"
   inkscape:window-height="1008"
   id="namedview3925"
   showgrid="false"
   inkscape:zoom="1.7666667"
   inkscape:cx="202.51698"
   inkscape:cy="259.9157"
   inkscape:window-x="-7"
   inkscape:window-y="0"
   inkscape:window-maximized="0"
   inkscape:current-layer="layer2" />












<g
   id="g3894">
</g>
<g
   id="g3896">
</g>
<g
   id="g3898">
</g>
<g
   id="g3900">
</g>
<g
   id="g3902">
</g>
<g
   id="g3904">
</g>
<g
   id="g3906">
</g>
<g
   id="g3908">
</g>
<g
   id="g3910">
</g>
<g
   id="g3912">
</g>
<g
   id="g3914">
</g>
<g
   id="g3916">
</g>
<g
   id="g3918">
</g>
<g
   id="g3920">
</g>
<g
   id="g3922">
</g>
<g
   inkscape:groupmode="layer"
   id="layer2"
   inkscape:label="Layer 2"><ellipse
     style="opacity:1;fill:#f9be3b;fill-opacity:1;stroke-width:3.64509559"
     id="path4872"
     cx="241.41508"
     cy="239.99998"
     rx="236.88678"
     ry="236.60378" /><text
     xml:space="preserve"
     style="font-style:normal;font-variant:normal;font-weight:normal;font-stretch:normal;font-size:26.66666603px;line-height:1.25;font-family:sans-serif;-inkscape-font-specification:'sans-serif, Normal';font-variant-ligatures:normal;font-variant-caps:normal;font-variant-numeric:normal;font-feature-settings:normal;text-align:start;letter-spacing:0px;word-spacing:0px;writing-mode:lr-tb;text-anchor:start;fill:#000000;fill-opacity:1;stroke:none"
     x="193.58492"
     y="424.52829"
     id="text5341"><tspan
       sodipodi:role="line"
       id="tspan5343"
       x="193.58492"
       y="424.52829">Report</tspan></text>
<g
     transform="matrix(0.6690928,0,0,0.67377887,80.873594,73.225911)"
     id="g5973"><g
       id="g5971"><path
         inkscape:connector-curvature="0"
         d="m 346.3,440.6 h 2.3 c -24,-3 -36.8,-12.6 -43.6,-22.3 H 180.8 c -6.8,9.7 -19.6,19.3 -43.6,22.3 h 1.5 c -7.5,0 -13.5,6.1 -13.5,13.5 0,7.5 6.1,13.5 13.5,13.5 h 207.6 c 7.5,0 13.5,-6.1 13.5,-13.5 0.1,-7.5 -6,-13.5 -13.5,-13.5 z"
         id="path5951" /><path
         inkscape:connector-curvature="0"
         d="M 485.8,307.8 V 53.5 C 485.8,34 470,18.2 450.5,18.2 H 35.3 C 15.8,18.2 0,34 0,53.5 V 314 c 0,0.1 0,0.3 0,0.4 v 47.2 c 0,0.2 0,0.4 0,0.6 v 2.6 c 0,0.2 0,0.4 0,0.6 v 0.7 0 C 0.6,382.7 14.3,396 31.1,396 h 143.3 14.3 108.3 8.8 148.8 c 16.8,0 30.4,-13.3 31.1,-29.9 v 0 z m -214.7,54.3 c 0,4.3 -3.5,7.8 -7.8,7.8 h -40.9 c -4.3,0 -7.8,-3.5 -7.8,-7.8 v -5.4 c 0,-4.3 3.5,-7.8 7.8,-7.8 h 40.9 c 4.3,0 7.8,3.5 7.8,7.8 z M 450.5,320.2 H 35.3 c -3.4,0 -6.2,-2.8 -6.2,-6.2 V 53.5 c 0,-3.4 2.8,-6.2 6.2,-6.2 h 415.1 c 3.4,0 6.2,2.8 6.2,6.2 v 260.5 0 c 0,3.4 -2.7,6.2 -6.1,6.2 z"
         id="path5953" /><path
         inkscape:connector-curvature="0"
         d="m 344.2,173.3 h 15.6 l 0.5,-0.5 c 0,-4.8 -0.4,-9.7 -1.1,-14.5 z"
         id="path5955" /><path
         inkscape:connector-curvature="0"
         d="m 308.4,84.7 -49.5,49.5 v 15.6 l 59,-59 c -3.1,-2.3 -6.3,-4.3 -9.5,-6.1 z"
         id="path5957" /><path
         inkscape:connector-curvature="0"
         d="m 286.4,75.6 -27.5,27.5 v 15.6 l 39,-39 c -3.7,-1.7 -7.6,-3 -11.5,-4.1 z"
         id="path5959" /><path
         inkscape:connector-curvature="0"
         d="M 273.6,72.9 C 268.8,72.2 264,71.8 259.1,71.8 L 258.9,72 V 87.6 Z"
         id="path5961" /><path
         inkscape:connector-curvature="0"
         d="m 297.6,173.3 49.7,-49.7 c -1.8,-3.2 -3.8,-6.4 -6.1,-9.5 L 282,173.3 Z"
         id="path5963" /><path
         inkscape:connector-curvature="0"
         d="m 334.3,105.4 c -1.2,-1.3 -2.4,-2.6 -3.7,-3.9 -1.3,-1.3 -2.7,-2.6 -4.1,-3.9 l -67.6,67.7 v 7.9 h 7.6 z"
         id="path5965" /><path
         inkscape:connector-curvature="0"
         d="m 328.7,173.3 27.8,-27.8 c -1.1,-3.9 -2.5,-7.7 -4,-11.5 l -39.3,39.3 z"
         id="path5967" /><path
         inkscape:connector-curvature="0"
         d="m 241.2,89.3 c -56.2,0 -101.8,45.6 -101.8,101.8 0,56.2 45.6,101.8 101.8,101.8 56.2,0 101.8,-45.6 101.8,-101.8 H 241.2 Z"
         id="path5969" /></g></g></g><g
   inkscape:groupmode="layer"
   id="layer1"
   inkscape:label="Layer 1" /></svg>